<svg width="201" height="30" viewBox="0 0 201 30" fill="none" xmlns="http://www.w3.org/2000/svg">
<path d="M39.2211 20.1152C39.7894 20.5474 39.886 21.0405 39.511 21.5946C37.7493 24.2208 35.3115 25.5339 32.1974 25.5339C29.4243 25.5339 27.1229 24.6696 25.2931 22.9409C23.4747 21.2012 22.5654 19.0625 22.5654 16.525C22.5654 15.2839 22.8041 14.1093 23.2814 13.0012C23.7588 11.882 24.4066 10.9235 25.2249 10.1257C26.0432 9.32781 27.0263 8.69619 28.1742 8.23079C29.3334 7.75431 30.5609 7.51606 31.8565 7.51606C33.834 7.51606 35.5275 7.95377 36.9367 8.82917C38.3574 9.70456 39.4087 10.9235 40.0906 12.4859C40.2383 12.8405 40.227 13.1342 40.0565 13.3669C39.886 13.5885 39.5962 13.6993 39.187 13.6993H36.2889C35.7775 13.6993 35.3456 13.45 34.9933 12.9513C34.2773 12.0205 33.2317 11.5551 31.8565 11.5551C30.5836 11.5551 29.4982 12.0371 28.6004 13.0012C27.7139 13.9542 27.2706 15.1288 27.2706 16.525C27.2706 17.9544 27.7423 19.1401 28.6856 20.082C29.6289 21.0239 30.8564 21.4948 32.3679 21.4948C34.0841 21.4948 35.5786 20.8743 36.8515 19.6332C37.3516 19.1346 37.863 19.0847 38.3858 19.4836L39.2211 20.1152ZM45.9051 22.9243C44.0299 21.1846 43.0922 19.0515 43.0922 16.525C43.0922 13.9985 44.0299 11.8654 45.9051 10.1257C47.7804 8.38594 50.1101 7.51606 52.8947 7.51606C54.7359 7.51606 56.4066 7.91498 57.9068 8.71281C59.407 9.51065 60.5775 10.5966 61.4186 11.9707C62.271 13.3447 62.6972 14.8628 62.6972 16.525C62.6972 18.1871 62.271 19.7053 61.4186 21.0793C60.5775 22.4533 59.407 23.5393 57.9068 24.3371C56.4066 25.135 54.7359 25.5339 52.8947 25.5339C50.1101 25.5339 47.7804 24.664 45.9051 22.9243ZM47.7974 16.525C47.7974 17.9323 48.286 19.1124 49.2636 20.0654C50.2407 21.0184 51.4511 21.4948 52.8947 21.4948C54.338 21.4948 55.5484 21.0184 56.5259 20.0654C57.5147 19.1124 58.0091 17.9323 58.0091 16.525C58.0091 15.1288 57.5147 13.9542 56.5259 13.0012C55.5484 12.0371 54.338 11.5551 52.8947 11.5551C51.4511 11.5551 50.2407 12.0371 49.2636 13.0012C48.286 13.9542 47.7974 15.1288 47.7974 16.525ZM67.2029 5.20565C66.6685 4.69594 66.4016 4.06983 66.4016 3.32741C66.4016 2.58497 66.6685 1.95889 67.2029 1.44916C67.7367 0.939433 68.3962 0.68457 69.1804 0.68457C69.9646 0.68457 70.6236 0.939433 71.1579 1.44916C71.6918 1.95889 71.9592 2.58497 71.9592 3.32741C71.9592 4.06983 71.6918 4.69594 71.1579 5.20565C70.6236 5.71537 69.9646 5.97025 69.1804 5.97025C68.3962 5.97025 67.7367 5.71537 67.2029 5.20565ZM66.8278 8.97876C66.8278 8.26959 67.1912 7.91498 67.9189 7.91498H70.4249C71.1521 7.91498 71.5159 8.26959 71.5159 8.97876V24.0712C71.5159 24.7804 71.1521 25.135 70.4249 25.135H67.9189C67.1912 25.135 66.8278 24.7804 66.8278 24.0712V8.97876ZM86.5646 7.51606C88.6444 7.51606 90.3322 8.15875 91.6278 9.44417C92.9234 10.7185 93.5713 12.3973 93.5713 14.4805V24.0712C93.5713 24.7804 93.2074 25.135 92.4802 25.135H89.9742C89.2469 25.135 88.8831 24.7804 88.8831 24.0712V14.9625C88.8831 14.0096 88.5534 13.2062 87.8943 12.5524C87.2353 11.8875 86.4511 11.5551 85.5417 11.5551C84.4278 11.5551 83.4789 11.943 82.6947 12.7186C81.9218 13.4832 81.5355 14.4971 81.5355 15.7604V24.0712C81.5355 24.7804 81.1717 25.135 80.4444 25.135H77.9384C77.2112 25.135 76.8473 24.7804 76.8473 24.0712V8.97876C76.8473 8.26959 77.2112 7.91498 77.9384 7.91498H80.4444C81.1717 7.91498 81.5355 8.26959 81.5355 8.97876V9.84309C82.854 8.29172 84.5301 7.51606 86.5646 7.51606ZM100.093 22.9243C98.2178 21.1846 97.2802 19.0515 97.2802 16.525C97.2802 13.9985 98.2178 11.8654 100.093 10.1257C101.968 8.38594 104.298 7.51606 107.083 7.51606C108.924 7.51606 110.595 7.91498 112.095 8.71281C113.595 9.51065 114.765 10.5966 115.607 11.9707C116.459 13.3447 116.885 14.8628 116.885 16.525C116.885 18.1871 116.459 19.7053 115.607 21.0793C114.765 22.4533 113.595 23.5393 112.095 24.3371C110.595 25.135 108.924 25.5339 107.083 25.5339C104.298 25.5339 101.968 24.664 100.093 22.9243ZM101.985 16.525C101.985 17.9323 102.474 19.1124 103.451 20.0654C104.429 21.0184 105.639 21.4948 107.083 21.4948C108.526 21.4948 109.736 21.0184 110.714 20.0654C111.703 19.1124 112.197 17.9323 112.197 16.525C112.197 15.1288 111.703 13.9542 110.714 13.0012C109.736 12.0371 108.526 11.5551 107.083 11.5551C105.639 11.5551 104.429 12.0371 103.451 13.0012C102.474 13.9542 101.985 15.1288 101.985 16.525ZM142.087 7.51606C144.019 7.51606 145.627 8.1643 146.911 9.46079C148.196 10.7462 148.838 12.4194 148.838 14.4805V24.0712C148.838 24.7804 148.474 25.135 147.747 25.135H145.241C144.513 25.135 144.15 24.7804 144.15 24.0712V14.9625C144.15 13.9985 143.86 13.1896 143.28 12.5358C142.701 11.882 141.962 11.5551 141.064 11.5551C140.018 11.5551 139.115 11.943 138.353 12.7186C137.603 13.4943 137.228 14.5082 137.228 15.7604V24.0712C137.228 24.7804 136.864 25.135 136.137 25.135H133.631C132.904 25.135 132.54 24.7804 132.54 24.0712V14.9625C132.54 13.9985 132.25 13.1896 131.671 12.5358C131.091 11.882 130.352 11.5551 129.454 11.5551C128.409 11.5551 127.505 11.943 126.744 12.7186C125.994 13.4943 125.619 14.5082 125.619 15.7604V24.0712C125.619 24.7804 125.255 25.135 124.528 25.135H122.022C121.294 25.135 120.93 24.7804 120.93 24.0712V8.97876C120.93 8.26959 121.294 7.91498 122.022 7.91498H124.528C125.255 7.91498 125.619 8.26959 125.619 8.97876V9.80984C126.937 8.28065 128.557 7.51606 130.477 7.51606C131.773 7.51606 132.943 7.82631 133.989 8.44687C135.035 9.05631 135.842 9.90402 136.41 10.99C137.024 9.91512 137.825 9.06742 138.814 8.44687C139.814 7.82631 140.905 7.51606 142.087 7.51606ZM154.17 5.20565C153.637 4.69594 153.369 4.06983 153.369 3.32741C153.369 2.58497 153.637 1.95889 154.17 1.44916C154.705 0.939433 155.364 0.68457 156.148 0.68457C156.932 0.68457 157.592 0.939433 158.126 1.44916C158.66 1.95889 158.927 2.58497 158.927 3.32741C158.927 4.06983 158.66 4.69594 158.126 5.20565C157.592 5.71537 156.932 5.97025 156.148 5.97025C155.364 5.97025 154.705 5.71537 154.17 5.20565ZM153.795 8.97876C153.795 8.26959 154.159 7.91498 154.886 7.91498H157.392C158.12 7.91498 158.484 8.26959 158.484 8.97876V24.0712C158.484 24.7804 158.12 25.135 157.392 25.135H154.886C154.159 25.135 153.795 24.7804 153.795 24.0712V8.97876ZM175.306 25.135C174.737 25.135 174.3 24.8967 173.993 24.4202L170.703 19.2842L167.412 24.4202C167.106 24.8967 166.668 25.135 166.1 25.135H163.44C162.997 25.135 162.707 25.0131 162.571 24.7693C162.434 24.5144 162.486 24.2097 162.724 23.8551L167.668 16.3588L163.133 9.19484C162.906 8.82917 162.861 8.52442 162.997 8.28065C163.145 8.03688 163.434 7.91498 163.866 7.91498H166.526C167.106 7.91498 167.543 8.15875 167.839 8.64633L170.703 13.45L173.567 8.64633C173.862 8.15875 174.3 7.91498 174.879 7.91498H177.539C177.97 7.91498 178.255 8.03688 178.391 8.28065C178.539 8.52442 178.499 8.82917 178.272 9.19484L173.737 16.3588L178.681 23.8551C178.92 24.2097 178.971 24.5144 178.834 24.7693C178.698 25.0131 178.408 25.135 177.965 25.135H175.306Z" fill="#FAFAFA"/>
<path d="M142.095 7.51606C144.027 7.51606 145.635 8.1643 146.919 9.46079C148.204 10.7462 148.846 12.4194 148.846 14.4805V24.0712C148.846 24.7804 148.482 25.135 147.755 25.135H145.249C144.521 25.135 144.158 24.7804 144.158 24.0712V14.9625C144.158 13.9985 143.868 13.1896 143.288 12.5358C142.709 11.882 141.97 11.5551 141.072 11.5551C140.026 11.5551 139.123 11.943 138.361 12.7186C137.611 13.4943 137.236 14.5082 137.236 15.7604V24.0712C137.236 24.7804 136.872 25.135 136.145 25.135H133.639C132.912 25.135 132.548 24.7804 132.548 24.0712V14.9625C132.548 13.9985 132.258 13.1896 131.679 12.5358C131.099 11.882 130.36 11.5551 129.462 11.5551C128.417 11.5551 127.513 11.943 126.752 12.7186C126.002 13.4943 125.627 14.5082 125.627 15.7604V24.0712C125.627 24.7804 125.263 25.135 124.536 25.135H122.03C121.302 25.135 120.938 24.7804 120.938 24.0712V8.97876C120.938 8.26958 121.302 7.91498 122.03 7.91498H124.536C125.263 7.91498 125.627 8.26958 125.627 8.97876V9.80984C126.945 8.28065 128.565 7.51606 130.485 7.51606C131.781 7.51606 132.951 7.82631 133.997 8.44687C135.043 9.05631 135.849 9.90402 136.418 10.99C137.032 9.91512 137.833 9.06742 138.822 8.44687C139.822 7.82631 140.913 7.51606 142.095 7.51606ZM154.178 5.20565C153.645 4.69593 153.377 4.06983 153.377 3.32741C153.377 2.58497 153.645 1.95889 154.178 1.44916C154.713 0.939433 155.372 0.68457 156.156 0.68457C156.94 0.68457 157.6 0.939433 158.133 1.44916C158.668 1.95889 158.935 2.58497 158.935 3.32741C158.935 4.06983 158.668 4.69593 158.133 5.20565C157.6 5.71537 156.94 5.97025 156.156 5.97025C155.372 5.97025 154.713 5.71537 154.178 5.20565ZM153.803 8.97876C153.803 8.26958 154.167 7.91498 154.894 7.91498H157.4C158.128 7.91498 158.491 8.26958 158.491 8.97876V24.0712C158.491 24.7804 158.128 25.135 157.4 25.135H154.894C154.167 25.135 153.803 24.7804 153.803 24.0712V8.97876ZM175.313 25.135C174.745 25.135 174.307 24.8967 174 24.4202L170.71 19.2842L167.42 24.4202C167.113 24.8967 166.676 25.135 166.107 25.135H163.448C163.005 25.135 162.715 25.0131 162.578 24.7693C162.442 24.5144 162.493 24.2097 162.732 23.8551L167.676 16.3588L163.141 9.19484C162.914 8.82917 162.868 8.52442 163.005 8.28065C163.153 8.03688 163.442 7.91498 163.874 7.91498H166.533C167.113 7.91498 167.551 8.15875 167.846 8.64633L170.71 13.45L173.574 8.64633C173.87 8.15875 174.307 7.91498 174.887 7.91498H177.546C177.978 7.91498 178.262 8.03688 178.399 8.28065C178.547 8.52442 178.507 8.82917 178.279 9.19484L173.745 16.3588L178.689 23.8551C178.927 24.2097 178.978 24.5144 178.842 24.7693C178.706 25.0131 178.416 25.135 177.973 25.135H175.313Z" fill="url(#paint0_linear_699_987)"/>
<path d="M4.28125 1.26691C4.28125 0.557719 4.64494 0.203125 5.37231 0.203125H13.5041C14.2315 0.203125 14.5952 0.557719 14.5952 1.26691V3.21164C14.5952 3.92083 14.2315 4.27542 13.5041 4.27542H9.12283V25.7173H13.5041C14.2315 25.7173 14.5952 26.0719 14.5952 26.7811V28.7258C14.5952 29.435 14.2315 29.7896 13.5041 29.7896H5.37231C4.64494 29.7896 4.28125 29.435 4.28125 28.7258V1.26691Z" fill="#FAFAFA"/>
<path d="M196.66 28.7258C196.66 29.435 196.296 29.7896 195.569 29.7896H187.437C186.71 29.7896 186.346 29.435 186.346 28.7258V26.7811C186.346 26.0719 186.71 25.7173 187.437 25.7173H191.818V4.27542H187.437C186.71 4.27542 186.346 3.92083 186.346 3.21164V1.26691C186.346 0.557719 186.71 0.203125 187.437 0.203125H195.569C196.296 0.203125 196.66 0.557719 196.66 1.26691V28.7258Z" fill="#FAFAFA"/>
<defs>
<linearGradient id="paint0_linear_699_987" x1="120.592" y1="13.0748" x2="179.56" y2="13.0748" gradientUnits="userSpaceOnUse">
<stop stop-color="#94CBFD"/>
<stop offset="1" stop-color="#8CF8E5"/>
</linearGradient>
</defs>
</svg>
