<svg width="24" height="29" viewBox="0 0 24 29" fill="none" xmlns="http://www.w3.org/2000/svg">
<g id="ITG Logo White" clip-path="url(#clip0_725_274)">
<g id="Group 1">
<path id="Vector" fill-rule="evenodd" clip-rule="evenodd" d="M13.2509 0.0102428C13.2282 0.0474301 12.4824 1.4363 12.2094 1.94964C12.1182 2.12101 11.9019 2.52514 11.7285 2.84771C11.5553 3.17028 11.3431 3.56616 11.2572 3.72745C11.1713 3.88873 10.9549 4.29286 10.7763 4.62551C10.5978 4.95816 10.377 5.37052 10.2858 5.54192C10.1946 5.71327 9.9739 6.12565 9.79538 6.45829C9.61685 6.79093 9.24768 7.47965 8.97499 7.9887C8.70229 8.49769 8.28059 9.28436 8.03783 9.73672C7.79507 10.189 7.59951 10.5621 7.60324 10.5657C7.60697 10.5693 7.71557 10.4671 7.84452 10.3387C8.35004 9.83507 8.68804 9.49647 9.23017 8.95091C9.74397 8.43367 10.3121 7.86295 12.0575 6.11023C12.3889 5.77748 12.7729 5.39361 12.911 5.25721C13.0491 5.12079 13.1752 4.99088 13.1913 4.96854C13.2074 4.9462 13.2307 4.92853 13.2431 4.92926C13.2554 4.92999 13.5541 5.24384 13.9068 5.62665C14.2595 6.00948 14.5955 6.37381 14.6535 6.43634C15.4242 7.26725 17.2102 9.19661 17.4054 9.4093C17.9858 10.0415 18.4857 10.574 18.4925 10.5673C18.4965 10.5634 18.403 10.3672 18.2845 10.1313C18.1661 9.89536 17.9124 9.38482 17.7208 8.99671C17.2929 8.13043 16.7027 6.93782 16.519 6.56827C16.4438 6.41708 16.2189 5.96345 16.0193 5.56026C15.8197 5.15702 15.4336 4.37763 15.1613 3.82825C14.889 3.27887 14.5154 2.52422 14.3311 2.15126C14.1467 1.77828 13.9176 1.31642 13.822 1.12488C13.7263 0.933359 13.5632 0.603458 13.4595 0.391775C13.3558 0.180087 13.2685 0.00428631 13.2654 0.00107893C13.2624 -0.00211012 13.2559 0.00201365 13.2509 0.0102428ZM13.0577 8.14975C12.8285 8.36621 12.1399 9.0233 11.2476 9.87696C10.926 10.1846 10.1706 10.9059 9.569 11.48C8.96736 12.054 8.24593 12.7428 7.96584 13.0107C7.68576 13.2785 6.96439 13.9672 6.36275 14.5411C5.76107 15.115 5.04395 15.7994 4.76904 16.0622C4.49415 16.3249 3.77275 17.0137 3.16592 17.5927C1.91467 18.7867 1.19334 19.4756 0.527383 20.1124C0.274279 20.3544 0.0507849 20.5675 0.0307365 20.586C0.0106691 20.6045 -0.00292943 20.6223 0.000540864 20.6255C0.0060858 20.6306 0.707761 20.6157 3.74116 20.5454L4.51443 20.5275L5.51495 21.5021C6.06521 22.0382 7.58821 23.5284 8.89939 24.8137C10.2106 26.0989 11.7098 27.5666 12.231 28.0752L13.1788 29L13.7879 28.4143C14.123 28.0922 14.6432 27.5935 14.9441 27.3063C15.2449 27.0189 15.7839 26.5032 16.1418 26.1602C16.4997 25.8173 17.4101 24.948 18.1652 24.2285C18.9201 23.509 19.5355 22.9141 19.5325 22.9066C19.5126 22.8552 12.6117 16.1653 12.5616 16.1488C12.5533 16.146 12.1525 16.522 11.6709 16.9843L10.7952 17.8249L13.4449 20.4119C14.9022 21.8347 16.0971 23.0065 16.1003 23.0159C16.1052 23.03 14.2022 24.8791 13.411 25.629L13.1793 25.8486L12.8352 25.5099C12.1046 24.7906 7.65245 20.429 6.66549 19.4656L5.62719 18.4521L6.54192 17.5707C7.04502 17.0859 7.94467 16.2181 8.5411 15.6421C10.0253 14.2089 12.1217 12.1877 12.7388 11.5948L13.2491 11.1047L14.9923 12.8136C15.9511 13.7536 17.6505 15.4181 18.7688 16.5128L20.8021 18.5031L21.5415 18.515C21.9481 18.5216 22.6712 18.5323 23.1484 18.5388L24.016 18.5505L23.365 17.9112C23.0069 17.5594 22.4001 16.9625 22.0165 16.5846C21.6328 16.2066 21.3147 15.8932 21.3095 15.8881C20.3147 14.9098 17.2303 11.8702 15.9068 10.5637C15.2022 9.8682 14.3249 9.00502 13.9572 8.6455C13.5895 8.28603 13.2834 7.98343 13.2767 7.97299C13.2701 7.96268 13.1716 8.04217 13.0577 8.14975Z" fill="#FAFAFA"/>
</g>
</g>
<defs>
<clipPath id="clip0_725_274">
<rect width="24" height="29" fill="white"/>
</clipPath>
</defs>
</svg>
